<?xml version="1.0" standalone="no"?>
<!DOCTYPE svg PUBLIC "-//W3C//DTD SVG 20010904//EN"
 "http://www.w3.org/TR/2001/REC-SVG-20010904/DTD/svg10.dtd">
<svg version="1.0" xmlns="http://www.w3.org/2000/svg"
 width="512.000000pt" height="512.000000pt" viewBox="0 0 512.000000 512.000000"
 preserveAspectRatio="xMidYMid meet">
<metadata>
Created by potrace 1.14, written by Peter Selinger 2001-2017
</metadata>
<g transform="translate(0.000000,512.000000) scale(0.100000,-0.100000)"
fill="#000000" stroke="none">
<path d="M1040 5100 c-221 -59 -385 -219 -456 -445 -13 -44 -18 -91 -19 -175
0 -100 4 -126 28 -198 21 -62 26 -87 17 -97 -44 -53 -118 -253 -136 -365 -2
-14 -8 -52 -13 -85 -16 -98 -5 -385 19 -490 5 -22 12 -56 15 -75 13 -78 28
-115 59 -146 59 -59 143 -65 206 -15 65 52 76 97 49 217 -44 203 -49 392 -14
574 3 14 14 52 26 86 l22 61 43 -24 c40 -23 133 -59 179 -70 11 -3 63 -6 115
-9 179 -7 337 55 465 181 74 73 131 163 160 251 l16 51 100 -23 c98 -23 238
-67 267 -83 12 -7 9 -12 -14 -27 -293 -185 -641 -490 -919 -805 -138 -156
-319 -412 -438 -619 -43 -74 -155 -309 -187 -390 -18 -47 -37 -94 -41 -105
-18 -40 -60 -182 -81 -274 -22 -91 -24 -94 -58 -108 -19 -8 -68 -30 -109 -50
-137 -67 -271 -227 -312 -373 -7 -25 -14 -52 -17 -60 -12 -43 -10 -212 4 -271
52 -229 238 -420 467 -478 87 -23 213 -25 297 -5 l58 13 81 -48 c136 -82 283
-134 446 -160 55 -8 301 -7 370 2 101 14 142 20 160 24 11 2 31 5 45 7 136 20
424 117 571 192 l49 24 57 -28 c32 -16 96 -43 143 -61 47 -18 94 -37 105 -42
33 -14 215 -66 280 -79 66 -13 85 -24 85 -48 0 -9 18 -53 40 -99 79 -163 247
-295 431 -339 13 -4 67 -8 120 -10 291 -11 545 173 635 461 26 85 26 269 -2
357 -3 9 15 46 41 87 44 67 120 231 108 231 -3 0 -1 6 5 13 5 6 20 59 33 117
33 153 33 433 0 606 -34 173 -51 213 -108 247 -68 39 -149 24 -201 -39 -41
-50 -45 -81 -22 -184 30 -138 35 -194 34 -355 -1 -117 -5 -168 -22 -231 -17
-66 -53 -163 -68 -183 -2 -2 -17 8 -34 23 -46 38 -170 95 -242 111 -87 18
-246 12 -325 -13 -183 -58 -341 -205 -409 -382 -9 -25 -20 -48 -24 -53 -9 -10
-277 67 -295 85 -4 3 36 34 87 68 489 328 972 836 1249 1313 19 33 41 71 50
85 126 214 256 538 304 757 19 86 29 105 53 105 9 0 54 19 100 42 149 73 272
218 324 381 30 92 33 243 8 341 -46 180 -170 335 -330 415 -47 23 -114 48
-150 55 -87 19 -247 14 -321 -9 -12 -4 -34 4 -61 23 -62 42 -149 89 -199 107
-69 25 -169 54 -208 60 -20 3 -61 10 -91 15 -53 9 -353 7 -395 -3 -11 -3 -42
-8 -69 -11 -68 -9 -173 -35 -212 -51 -18 -7 -45 -32 -60 -55 -58 -87 -17 -205
83 -238 34 -11 46 -10 158 13 181 37 344 44 486 20 83 -13 239 -62 257 -80 2
-2 -13 -25 -32 -53 -81 -112 -117 -237 -111 -382 4 -103 3 -99 28 -180 50
-164 187 -313 354 -386 41 -17 77 -34 80 -37 3 -3 0 -21 -5 -39 -52 -169 -76
-244 -83 -252 -4 -4 -35 34 -70 85 -235 353 -578 718 -929 990 -133 103 -203
151 -370 252 -306 185 -580 298 -892 369 -106 24 -148 37 -148 47 0 8 -18 52
-40 98 -128 263 -445 408 -730 333z m1629 -1112 c114 -68 211 -134 341 -232
143 -108 217 -173 390 -344 245 -241 419 -460 579 -729 l73 -123 -42 -72
c-489 -826 -1344 -1506 -2112 -1678 -124 -28 -203 -35 -368 -33 -155 1 -253
20 -351 65 l-49 23 40 60 c39 59 84 157 95 212 13 60 13 220 0 281 -39 180
-172 349 -337 430 -47 23 -93 42 -102 42 -9 0 -16 3 -16 8 0 12 37 143 59 212
31 98 35 100 67 49 28 -45 195 -276 229 -318 56 -67 159 -187 197 -227 225
-243 573 -545 659 -572 67 -21 147 8 181 66 48 82 25 163 -67 233 -205 157
-442 376 -591 549 -21 25 -41 47 -45 50 -5 4 -123 152 -152 191 -50 65 -181
262 -236 356 l-42 72 25 44 c89 160 242 380 389 557 79 94 362 381 446 450 29
25 59 50 65 55 6 6 31 26 56 45 25 19 47 37 50 40 3 4 28 21 55 40 28 19 52
36 55 39 9 11 173 118 260 170 47 28 91 49 99 46 8 -3 53 -29 100 -57z"/>
<path d="M2420 3428 c-158 -31 -269 -79 -385 -165 -165 -122 -277 -292 -330
-498 -23 -90 -28 -269 -9 -365 62 -325 286 -576 609 -681 295 -96 653 -5 878
223 99 101 183 237 217 356 126 432 -67 865 -472 1061 -37 17 -76 34 -86 36
-10 2 -43 11 -73 20 -62 19 -279 27 -349 13z"/>
</g>
</svg>
